# xmcd
#
# Track frame offsets: 
#        150
#        16916
#        30652
#        56478
#        75862
#        90428
#        109816
#        125522
#        141409
#        160602
#        176734
#        188525
#
# Disc length: 2792 seconds
#
# Revision: 0
# Processed by: cddbd v1.5.1PL0 Copyright (c) Steve Scherf et al.
# Submitted via: ExactAudioCopy v0.95a3
#
DISCID=8a0ae60c
DTITLE=Liz Meyer - The Storm
DYEAR=2004
DGENRE=Bluegrass
TTITLE0=Blue Lonesome Wind
TTITLE1=The Only Wind That Blows
TTITLE2=The Storm
TTITLE3=Pulled In Two Directions
TTITLE4=Someday You Will
TTITLE5=My Favorite Time of the Year
TTITLE6=Trust Me
TTITLE7=Keep Your Heart Away From Me
TTITLE8=Save Me From Myself
TTITLE9=Untamed
TTITLE10=Katy Hill
TTITLE11=Running Out Of Time
EXTD=
EXTT0=
EXTT1=
EXTT2=
EXTT3=
EXTT4=
EXTT5=
EXTT6=
EXTT7=
EXTT8=
EXTT9=
EXTT10=
EXTT11=
PLAYORDER=
